<?xml version="1.0" encoding="UTF-8"?>
<svg version="1.1" xmlns="http://www.w3.org/2000/svg" width="593" height="324">
<path d="M0 0 C1.134375 0.020625 2.26875 0.04125 3.4375 0.0625 C3.7675 1.0525 4.0975 2.0425 4.4375 3.0625 C5.4275 3.5575 5.4275 3.5575 6.4375 4.0625 C7.21875 5.8828125 7.21875 5.8828125 7.9375 8.1875 C8.32228516 9.39792969 8.32228516 9.39792969 8.71484375 10.6328125 C9.34989185 12.7679472 9.93251644 14.9087435 10.5 17.0625 C10.809375 18.0525 11.11875 19.0425 11.4375 20.0625 C12.0975 20.3925 12.7575 20.7225 13.4375 21.0625 C14.30019598 23.13855615 15.07271371 25.25203752 15.8125 27.375 C19.58759543 37.88629294 24.1019268 48.08322459 28.53515625 58.328125 C31.22630991 64.54980963 33.8436333 70.79975584 36.4375 77.0625 C37.27036993 79.06269302 38.10370551 81.06269221 38.9375 83.0625 C43.9375 95.0625 43.9375 95.0625 45.18798828 98.06396484 C46.01941652 100.05919768 46.85112121 102.05431535 47.68310547 104.04931641 C49.79789568 109.12133383 51.90749283 114.19540912 54.0078125 119.2734375 C54.42933594 120.29050781 54.85085938 121.30757813 55.28515625 122.35546875 C56.14615397 124.43292196 57.00549429 126.51106275 57.86328125 128.58984375 C60.83653363 135.97720953 60.83653363 135.97720953 64.4375 143.0625 C66.81834878 143.90548574 66.81834878 143.90548574 69.4375 144.0625 C71.1167238 144.69687344 72.78758418 145.35539322 74.4375 146.0625 C74.4375 147.7125 74.4375 149.3625 74.4375 151.0625 C69.95896011 151.35752593 65.48062771 151.6076275 60.99755859 151.81933594 C59.47835388 151.89704626 57.95968553 151.98624252 56.44189453 152.08789062 C45.79454402 152.79068604 38.74094966 151.90213996 29.4375 146.0625 C28.70394287 145.71082764 27.97038574 145.35915527 27.21459961 144.99682617 C20.27972419 141.35075278 16.46807465 127.86957622 13.5 121 C13.09821533 120.07147217 12.69643066 119.14294434 12.2824707 118.1862793 C11.91210693 117.30883057 11.54174316 116.43138184 11.16015625 115.52734375 C10.82765869 114.739646 10.49516113 113.95194824 10.15258789 113.14038086 C9.4375 111.0625 9.4375 111.0625 9.4375 108.0625 C8.29740479 108.16860596 8.29740479 108.16860596 7.13427734 108.27685547 C-1.57080171 109.02428115 -10.20336287 109.21367624 -18.9375 109.1875 C-20.25105469 109.19136719 -21.56460938 109.19523437 -22.91796875 109.19921875 C-24.19027344 109.19792969 -25.46257812 109.19664062 -26.7734375 109.1953125 C-27.91087402 109.19418457 -29.04831055 109.19305664 -30.22021484 109.19189453 C-33.72538419 109.05619404 -37.10070651 108.61592531 -40.5625 108.0625 C-40.70945312 108.8978125 -40.70945312 108.8978125 -40.859375 109.75 C-41.82588416 114.68252949 -43.23191527 118.71499554 -45.609375 123.1328125 C-47.03629364 126.02173795 -47.78251862 128.94257449 -48.5625 132.0625 C-49.2225 132.0625 -49.8825 132.0625 -50.5625 132.0625 C-51.2225 135.0325 -51.8825 138.0025 -52.5625 141.0625 C-51.56669922 141.33513672 -51.56669922 141.33513672 -50.55078125 141.61328125 C-45.82796387 142.95773291 -41.63414661 144.21234737 -37.5625 147.0625 C-37.8925 148.7125 -38.2225 150.3625 -38.5625 152.0625 C-44.8958664 152.07545559 -51.2291303 152.07366906 -57.5625 152.0625 C-58.584505 152.06074768 -59.60651001 152.05899536 -60.65948486 152.05718994 C-67.32796787 152.04070372 -73.99530787 151.9900099 -80.66333008 151.90991211 C-82.98714927 151.88647561 -85.31107852 151.87227756 -87.63500977 151.86694336 C-91.05028789 151.85763092 -94.46396619 151.8166903 -97.87890625 151.76953125 C-99.4182357 151.77543022 -99.4182357 151.77543022 -100.98866272 151.78144836 C-109.43468442 151.61198317 -116.69935463 149.24241456 -122.75 143.125 C-129.7169731 134.08224237 -133.99020495 122.1741982 -138.64477539 111.78100586 C-139.51801435 109.83485211 -140.40049002 107.89304388 -141.28320312 105.95117188 C-141.8443076 104.70337559 -142.40487607 103.4553381 -142.96484375 102.20703125 C-143.71495728 100.54184448 -143.71495728 100.54184448 -144.48022461 98.84301758 C-145.5625 96.0625 -145.5625 96.0625 -145.5625 93.0625 C-146.5525 92.5675 -146.5525 92.5675 -147.5625 92.0625 C-148.2225 90.4125 -148.8825 88.7625 -149.5625 87.0625 C-153.5225 86.7325 -157.4825 86.4025 -161.5625 86.0625 C-161.5625 104.8725 -161.5625 123.6825 -161.5625 143.0625 C-159.5825 143.0625 -157.6025 143.0625 -155.5625 143.0625 C-152.7890625 143.9375 -152.7890625 143.9375 -150.1875 145.0625 C-148.87652344 145.619375 -148.87652344 145.619375 -147.5390625 146.1875 C-146.88679688 146.47625 -146.23453125 146.765 -145.5625 147.0625 C-145.8925 148.3825 -146.2225 149.7025 -146.5625 151.0625 C-152.94468469 151.20759339 -159.32693234 151.34964342 -165.70922852 151.48974609 C-167.87265495 151.53757613 -170.03606705 151.58605956 -172.19946289 151.63525391 C-184.98940109 151.92559765 -197.76907667 152.14126242 -210.5625 152.0625 C-210.5625 150.0825 -210.5625 148.1025 -210.5625 146.0625 C-206.6025 145.0725 -202.6425 144.0825 -198.5625 143.0625 C-198.2325 99.1725 -197.9025 55.2825 -197.5625 10.0625 C-200.2025 9.7325 -202.8425 9.4025 -205.5625 9.0625 C-208.5625 8 -208.5625 8 -210.5625 7.0625 C-210.5625 5.7425 -210.5625 4.4225 -210.5625 3.0625 C-125.63985738 -1.87076555 -125.63985738 -1.87076555 -103.5625 12.0625 C-102.89992188 12.46984375 -102.23734375 12.8771875 -101.5546875 13.296875 C-93.76251409 18.57066537 -88.58396969 25.86099882 -86.5625 35.0625 C-85.63997474 44.37793206 -84.86524001 55.17026166 -90.5625 63.0625 C-91.11035156 63.82691406 -91.65820312 64.59132813 -92.22265625 65.37890625 C-100.81190112 76.0845975 -112.87484605 79.46474618 -125.5625 83.0625 C-124.88445312 83.24683594 -124.20640625 83.43117188 -123.5078125 83.62109375 C-112.70031418 86.98908145 -106.12494484 92.73471863 -100.76220703 102.62036133 C-99.27585019 105.4911413 -97.84145503 108.38291777 -96.45703125 111.30419922 C-95.4723988 113.32452322 -95.4723988 113.32452322 -93.5625 116.0625 C-93.5625 117.0525 -93.5625 118.0425 -93.5625 119.0625 C-92.22745267 122.81489416 -90.55664343 126.42522652 -88.9375 130.0625 C-88.29748047 131.5784375 -88.29748047 131.5784375 -87.64453125 133.125 C-85.06307343 138.96707187 -85.06307343 138.96707187 -80.50390625 143.2890625 C-75.96598139 144.48230171 -72.93438837 143.43586807 -68.5625 142.0625 C-67.325 141.77375 -66.0875 141.485 -64.8125 141.1875 C-61.15340038 138.79501179 -60.80237989 137.86131005 -59.27734375 133.91796875 C-58.84953613 132.83966797 -58.42172852 131.76136719 -57.98095703 130.65039062 C-57.51286621 129.46638672 -57.04477539 128.28238281 -56.5625 127.0625 C-55.49003621 124.48717188 -54.39491102 121.92165225 -53.30078125 119.35546875 C-52.73324762 118.01387328 -52.16619449 116.67207445 -51.59960938 115.33007812 C-50.73281595 113.27782085 -49.86483962 111.22611059 -48.99291992 109.17602539 C-48.13341172 107.15408912 -47.27914343 105.13000529 -46.42578125 103.10546875 C-45.92344971 101.91977295 -45.42111816 100.73407715 -44.90356445 99.51245117 C-43.93815643 97.02889379 -43.17770198 94.74049109 -42.50854492 92.18481445 C-42.1963501 91.15445068 -41.88415527 90.12408691 -41.5625 89.0625 C-40.9025 88.7325 -40.2425 88.4025 -39.5625 88.0625 C-38.9315012 86.35742641 -38.9315012 86.35742641 -38.4375 84.1875 C-37.01219088 79.11499453 -35.08769305 74.37062711 -33.015625 69.5390625 C-32.29324237 67.83912115 -31.57108305 66.13908489 -30.84912109 64.43896484 C-30.4734198 63.55666199 -30.09771851 62.67435913 -29.71063232 61.76531982 C-27.8105926 57.2924338 -25.93287302 52.81022172 -24.0546875 48.328125 C-23.67613617 47.42516693 -23.29758484 46.52220886 -22.90756226 45.59188843 C-22.13760981 43.75516803 -21.36780422 41.91838606 -20.59814453 40.08154297 C-19.82129323 38.22814638 -19.04394553 36.37495778 -18.26611328 34.52197266 C-13.96803996 24.28239222 -9.70741002 14.03622572 -5.66064453 3.69433594 C-4.14954313 0.072799 -4.14954313 0.072799 0 0 Z M-161.5625 10.0625 C-161.5625 32.8325 -161.5625 55.6025 -161.5625 79.0625 C-145.82716359 79.26005636 -145.82716359 79.26005636 -132.5625 72.0625 C-132.5625 71.4025 -132.5625 70.7425 -132.5625 70.0625 C-131.9025 70.0625 -131.2425 70.0625 -130.5625 70.0625 C-130.5625 69.0725 -130.5625 68.0825 -130.5625 67.0625 C-129.9025 67.0625 -129.2425 67.0625 -128.5625 67.0625 C-125.49123803 60.34857848 -123.81960488 54.44029207 -123.5625 47.0625 C-123.52253906 46.12921875 -123.48257813 45.1959375 -123.44140625 44.234375 C-123.31486519 38.78566587 -123.67067158 34.24013569 -125.5625 29.0625 C-126.18125 27.33 -126.18125 27.33 -126.8125 25.5625 C-130.43807949 18.31134103 -134.94314568 13.93132571 -142.5625 11.0625 C-148.30067198 9.45616094 -148.30067198 9.45616094 -161.5625 10.0625 Z M-16.5625 50.0625 C-16.95179688 51.01125 -17.34109375 51.96 -17.7421875 52.9375 C-21.8576355 62.95488879 -26.01134917 72.95596145 -30.18505859 82.94921875 C-30.59449707 83.93019531 -31.00393555 84.91117188 -31.42578125 85.921875 C-31.78969971 86.79295898 -32.15361816 87.66404297 -32.52856445 88.56152344 C-33.55919985 91.0545173 -34.56499336 93.55608341 -35.5625 96.0625 C-36.5525 98.5375 -36.5525 98.5375 -37.5625 101.0625 C-23.3725 101.0625 -9.1825 101.0625 5.4375 101.0625 C3.00016968 92.83672129 3.00016968 92.83672129 -0.3984375 85.5078125 C-1.97859965 82.18841147 -3.2321121 78.75959536 -4.5 75.3125 C-9.0954245 62.24303214 -9.0954245 62.24303214 -15.5625 50.0625 C-15.8925 50.0625 -16.2225 50.0625 -16.5625 50.0625 Z " fill="#FBFDFD" transform="translate(510.5625,79.9375)"/>
<path d="M0 0 C1.08992752 0.00132935 1.08992752 0.00132935 2.20187378 0.00268555 C13.88706954 0.0194226 25.52658623 0.33154779 37.1875 1.125 C36.8575 2.775 36.5275 4.425 36.1875 6.125 C31.92133684 7.26264351 28.62263689 8.125 24.1875 8.125 C24.35081314 9.42311111 24.51412628 10.72122223 24.68238831 12.05867004 C25.20529718 16.78829867 25.3099741 21.43228758 25.26928711 26.1862793 C25.26622055 27.04292679 25.26315399 27.89957428 25.25999451 28.78218079 C25.25288857 30.62689357 25.24352505 32.47159881 25.23209953 34.3162899 C25.21454763 37.24869161 25.20435828 40.1810376 25.19618225 43.11347961 C25.17187735 51.44606795 25.1363694 59.77858122 25.09155273 68.11108398 C25.06456461 73.22431254 25.0476562 78.33749793 25.03668404 83.45078468 C25.0305318 85.38461716 25.02060059 87.31844188 25.00660515 89.25223351 C24.53104317 115.44021745 24.53104317 115.44021745 36.1875 138.125 C43.65247431 143.62775249 52.23863684 144.32556822 61.1875 145.125 C61.5175 144.465 61.8475 143.805 62.1875 143.125 C63.1775 143.455 64.1675 143.785 65.1875 144.125 C65.5175 143.465 65.8475 142.805 66.1875 142.125 C67.734375 141.50625 67.734375 141.50625 69.3125 140.875 C79.52148303 136.63691502 84.39260233 127.68547501 88.5 117.875 C91.14519191 111.22295621 91.34643612 104.6922683 91.39282227 97.63134766 C91.40272186 96.69412872 91.41262146 95.75690979 91.42282104 94.79129028 C91.45429578 91.70723966 91.47913782 88.62317366 91.50390625 85.5390625 C91.5244879 83.39529022 91.54548468 81.25152189 91.56687927 79.10775757 C91.62197489 73.4755575 91.6714392 67.84332157 91.71972656 62.21105957 C91.77003309 56.45968447 91.82567132 50.70836121 91.88085938 44.95703125 C91.98828788 33.67973183 92.08976665 22.40238732 92.1875 11.125 C91.42219971 10.98006104 90.65689941 10.83512207 89.8684082 10.68579102 C86.90613575 10.06614437 84.20887365 9.12093474 81.375 8.0625 C80.39917969 7.70027344 79.42335938 7.33804688 78.41796875 6.96484375 C77.68191406 6.68769531 76.94585937 6.41054687 76.1875 6.125 C76.1875 4.475 76.1875 2.825 76.1875 1.125 C89.92666837 -0.4168706 103.4368991 0.20280401 117.1875 1.125 C117.16015625 3.41796875 117.16015625 3.41796875 116.1875 6.125 C113.6060443 7.50078159 111.35590921 8.49400447 108.625 9.4375 C107.91408203 9.70111328 107.20316406 9.96472656 106.47070312 10.23632812 C104.71620275 10.88396249 102.95261811 11.50689005 101.1875 12.125 C101.17870064 13.88907196 101.17870064 13.88907196 101.16972351 15.68878174 C101.11233329 26.81058118 101.03948722 37.93218816 100.95178509 49.05379105 C100.90719347 54.77054668 100.86791287 60.48723288 100.84106445 66.20410156 C100.81491941 71.72854658 100.77443852 77.25272279 100.72431374 82.77700043 C100.70772049 84.87710966 100.69615953 86.97726531 100.68988609 89.07743073 C100.64661995 102.23873124 100.55531765 114.55836393 94.25 126.5 C93.76660156 127.43585938 93.28320312 128.37171875 92.78515625 129.3359375 C86.49251638 140.32113277 77.3514772 147.42291998 65.1875 151.125 C64.61539795 151.2993457 64.0432959 151.47369141 63.45385742 151.65332031 C58.10022208 152.76753161 52.44572857 152.35354957 47 152.375 C45.06543945 152.4059375 45.06543945 152.4059375 43.09179688 152.4375 C35.85471355 152.4670844 29.82706706 152.07554273 23.1875 149.125 C22.00285156 148.62742188 20.81820312 148.12984375 19.59765625 147.6171875 C5.96498935 141.03151177 -3.9722395 132.14166986 -9.6875 117.8125 C-11.6829834 111.27174886 -11.97465931 105.13661983 -12.01782227 98.35595703 C-12.02772186 97.38947739 -12.03762146 96.42299774 -12.04782104 95.42723083 C-12.07930459 92.24578263 -12.10414136 89.06431951 -12.12890625 85.8828125 C-12.14948713 83.67177959 -12.1704839 81.46075052 -12.19187927 79.24972534 C-12.24698278 73.43997306 -12.29644364 67.63018597 -12.34472656 61.82037354 C-12.3950273 55.88803013 -12.45066857 49.95573707 -12.50585938 44.0234375 C-12.61329754 32.39066805 -12.7147742 20.75785481 -12.8125 9.125 C-16.4425 8.135 -20.0725 7.145 -23.8125 6.125 C-24.1425 4.475 -24.4725 2.825 -24.8125 1.125 C-16.54765531 -0.03336533 -8.32742095 -0.02907136 0 0 Z " fill="#FAFDFD" transform="translate(172.8125,81.875)"/>
<path d="M0 0 C2.31 0 4.62 0 7 0 C7.495 1.485 7.495 1.485 8 3 C8.99 3.495 8.99 3.495 10 4 C10.71446093 5.98342885 11.37154676 7.98766529 12 10 C12.92053661 12.29440622 13.86212861 14.5804342 14.8203125 16.859375 C15.36074793 18.15231414 15.90111043 19.44528377 16.44140625 20.73828125 C17.28733423 22.75557009 18.13441205 24.77236501 18.98291016 26.78857422 C19.806738 28.74842228 20.62626234 30.71002649 21.4453125 32.671875 C21.93531738 33.8381543 22.42532227 35.00443359 22.93017578 36.20605469 C24 39 24 39 24 41 C24.66 41.33 25.32 41.66 26 42 C26.7109375 43.78515625 26.7109375 43.78515625 27.375 46.0625 C28.27299431 49.14056482 29.41698576 51.89563846 30.87890625 54.73828125 C33.10163335 59.08738328 34.848179 63.5560456 36.5625 68.125 C38.48544928 73.23296727 40.50551961 78.13611066 43 83 C43.64668589 84.53269647 44.27282817 86.0742743 44.875 87.625 C46.82599654 92.60835939 48.9210763 97.52248652 51.046875 102.43359375 C52 105 52 105 52 108 C52.99 108.33 53.98 108.66 55 109 C55.11408203 109.86206055 55.22816406 110.72412109 55.34570312 111.61230469 C56.01733862 115.08977267 57.07190715 117.95351139 58.46875 121.203125 C59.20158203 122.92015625 59.20158203 122.92015625 59.94921875 124.671875 C60.46097656 125.85265625 60.97273437 127.0334375 61.5 128.25 C62.01175781 129.44625 62.52351562 130.6425 63.05078125 131.875 C65.41724256 137.48708883 65.41724256 137.48708883 68 143 C70.34386809 143.91031272 70.34386809 143.91031272 73.0625 144.625 C73.98160156 144.88539063 74.90070313 145.14578125 75.84765625 145.4140625 C76.55792969 145.60742188 77.26820313 145.80078125 78 146 C78 147.65 78 149.3 78 151 C71.64112426 152.51394746 65.30214863 152.00289745 58.8125 151.8125 C57.53568359 151.79380859 56.25886719 151.77511719 54.94335938 151.75585938 C45.6938948 151.48479537 36.52994295 150.46318465 29.75 143.5 C25.25594495 138.62616565 22.67938078 133.00393824 20 127 C19.53464844 126.03191406 19.06929688 125.06382812 18.58984375 124.06640625 C16.06585683 118.76088272 14.19432946 113.75449647 13 108 C12.28561768 108.07726318 11.57123535 108.15452637 10.83520508 108.23413086 C0.74414567 109.1799954 -9.19788795 108.90594866 -19.3125 108.5625 C-21.03578769 108.50912886 -22.75909509 108.45639024 -24.48242188 108.40429688 C-28.65521055 108.27680702 -32.82764057 108.14081354 -37 108 C-37.12383057 108.88751953 -37.24766113 109.77503906 -37.37524414 110.68945312 C-37.9510485 113.74060872 -38.74431949 116.14446418 -39.99609375 118.96875 C-40.38990234 119.86980469 -40.78371094 120.77085937 -41.18945312 121.69921875 C-41.60130859 122.62347656 -42.01316406 123.54773438 -42.4375 124.5 C-46.05061939 132.6209751 -46.05061939 132.6209751 -49 141 C-47.92685547 141.18369141 -47.92685547 141.18369141 -46.83203125 141.37109375 C-43.94887287 142.01135375 -41.41407527 142.93551556 -38.6875 144.0625 C-37.80449219 144.42472656 -36.92148437 144.78695312 -36.01171875 145.16015625 C-35.34785156 145.43730469 -34.68398438 145.71445313 -34 146 C-34 147.65 -34 149.3 -34 151 C-37.33761231 152.66880615 -41.06759523 151.99628371 -44.7265625 151.87890625 C-45.58937836 151.85529526 -46.45219421 151.83168427 -47.34115601 151.80735779 C-50.10260206 151.73065703 -52.86377218 151.64666038 -55.625 151.5625 C-57.49477807 151.50928573 -59.36456969 151.45654529 -61.234375 151.40429688 C-65.82309209 151.27503321 -70.41157477 151.13922496 -75 151 C-74.65917969 148.59667969 -74.65917969 148.59667969 -74 146 C-71.453125 144.453125 -71.453125 144.453125 -68.25 143.25 C-66.67992188 142.63898438 -66.67992188 142.63898438 -65.078125 142.015625 C-62.38132434 141.12581767 -59.79523725 140.4762256 -57 140 C-56.91363281 139.20078125 -56.82726562 138.4015625 -56.73828125 137.578125 C-55.7947721 133.00535048 -54.05508583 129.01392555 -52.1875 124.75 C-51.4925415 123.14103417 -50.79853343 121.5316575 -50.10546875 119.921875 C-49.75532715 119.11032959 -49.40518555 118.29878418 -49.04443359 117.46264648 C-47.66393665 114.20760378 -46.36030482 110.92430279 -45.0559082 107.63818359 C-43.08651444 102.71765897 -41.03952525 97.82927042 -39 92.9375 C-38.57460938 91.91333984 -38.14921875 90.88917969 -37.7109375 89.83398438 C-35.47534686 84.46788107 -33.1961441 79.13226595 -30.77246094 73.84814453 C-29.8351832 71.60566904 -29.31076094 69.40839729 -29 67 C-28.34 67 -27.68 67 -27 67 C-26.90203125 66.443125 -26.8040625 65.88625 -26.703125 65.3125 C-26.55359375 64.549375 -26.4040625 63.78625 -26.25 63 C-26.11078125 62.2575 -25.9715625 61.515 -25.828125 60.75 C-25.11444207 58.38003405 -24.29972895 56.52679089 -23.16894531 54.34716797 C-21.06992151 50.20385295 -19.2395721 45.98733681 -17.46875 41.6953125 C-17.15095581 40.9312912 -16.83316162 40.1672699 -16.5057373 39.38009644 C-15.50114313 36.9628341 -14.50058381 34.54392466 -13.5 32.125 C-12.82967527 30.51161561 -12.15910422 28.89833354 -11.48828125 27.28515625 C-8.54183378 20.19091928 -5.60039297 13.09709855 -2.80664062 5.94091797 C-1.96171147 3.90787111 -1.00686904 1.95725251 0 0 Z M-12 50 C-15.3104833 55.27225119 -17.51183624 60.68425679 -19.65625 66.5234375 C-20.97370853 69.93197846 -22.43209833 73.24166929 -23.9296875 76.57324219 C-25.80303529 80.82075064 -27.5249663 85.12811025 -29.25 89.4375 C-29.61351562 90.33404297 -29.97703125 91.23058594 -30.3515625 92.15429688 C-30.69445313 93.00958984 -31.03734375 93.86488281 -31.390625 94.74609375 C-31.70032227 95.51622803 -32.01001953 96.2863623 -32.32910156 97.07983398 C-33.10994748 98.97567923 -33.10994748 98.97567923 -33 101 C-18.81 101 -4.62 101 10 101 C7.04672871 93.32149465 4.15953094 86.12230331 0.68359375 78.74609375 C-2.57085801 71.65498084 -5.32589112 64.3362346 -8.18164062 57.078125 C-9.11217177 54.71515332 -10.05349094 52.35661439 -11 50 C-11.33 50 -11.66 50 -12 50 Z " fill="#FBFDFD" transform="translate(75,80)"/>
<path d="M0 0 C0.12375 0.639375 0.2475 1.27875 0.375 1.9375 C0.684375 2.9584375 0.684375 2.9584375 1 4 C1.99 4.495 1.99 4.495 3 5 C0.82729309 11.78970908 -2.56983079 17.7119681 -6.16015625 23.828125 C-8.25212353 27.33013796 -8.25212353 27.33013796 -10 31 C-9.67 31.66 -9.34 32.32 -9 33 C-9.46188721 33.4014624 -9.92377441 33.8029248 -10.3996582 34.21655273 C-13.35090387 37.50546953 -14.01564428 41.88143453 -15.1875 46.0625 C-15.46013672 46.96677734 -15.73277344 47.87105469 -16.01367188 48.80273438 C-17.59292292 54.34000808 -18.2653799 59.24257813 -18.0012207 65.00170898 C-18 67 -18 67 -19 69 C-18.48050781 68.66226563 -17.96101563 68.32453125 -17.42578125 67.9765625 C-13.71151993 65.60108299 -10.19599085 63.44237185 -6 62 C-6.875 66.75 -6.875 66.75 -8 69 C-9.485 69.495 -9.485 69.495 -11 70 C-12.02019573 70.9793879 -13.02149805 71.97895449 -14 73 C-16.82883747 74.41441874 -18.87376745 74.31900332 -22 74 C-25.59469181 70.52926308 -25.96070394 67.21424822 -26.1171875 62.37890625 C-26.09296068 57.99928992 -25.40895471 53.94791332 -24.4375 49.6875 C-24.18274902 48.54692139 -24.18274902 48.54692139 -23.92285156 47.38330078 C-21.77206589 38.30446795 -18.4194395 29.66386076 -15 21 C-18.52323645 26.25663057 -22.03213979 31.52253 -25.53027344 36.79589844 C-26.68738286 38.53117814 -27.86033635 40.25589329 -29.0390625 41.9765625 C-33.85640606 49.16833132 -37.38283545 56.89519922 -40.984375 64.7421875 C-45.09596977 73.55849686 -45.09596977 73.55849686 -48.6875 75.3125 C-49.450625 75.539375 -50.21375 75.76625 -51 76 C-52.3446936 71.50026559 -51.54686467 68.68569215 -50.05078125 64.29296875 C-49.83788956 63.65467133 -49.62499786 63.0163739 -49.40565491 62.35873413 C-48.95156586 60.99948909 -48.49245862 59.64191181 -48.02874756 58.28591919 C-46.83401951 54.78567653 -45.68197924 51.27144342 -44.52734375 47.7578125 C-44.30222107 47.0752388 -44.07709839 46.3926651 -43.84515381 45.68940735 C-42.20178328 40.68336054 -40.66488025 35.67114705 -39.375 30.5625 C-39.09398437 29.45003906 -38.81296875 28.33757812 -38.5234375 27.19140625 C-37.89844297 23.38080525 -37.90763904 19.85816925 -38 16 C-42.1903775 20.39989637 -45.35737113 25.00693732 -48.375 30.25 C-48.91157227 31.17159912 -48.91157227 31.17159912 -49.45898438 32.11181641 C-51.05962266 34.95349539 -52 36.68530887 -52 40 C-52.99 40 -53.98 40 -55 40 C-55.28359375 40.721875 -55.5671875 41.44375 -55.859375 42.1875 C-56.92904415 44.82504036 -58.06640909 47.41188122 -59.25 50 C-59.68183594 50.94746094 -60.11367188 51.89492188 -60.55859375 52.87109375 C-61.58376614 55.09646795 -62.61865729 57.31737612 -63.66015625 59.53515625 C-64.47806641 61.28119141 -64.47806641 61.28119141 -65.3125 63.0625 C-65.82425781 64.14660156 -66.33601563 65.23070312 -66.86328125 66.34765625 C-68.13130643 68.82543767 -68.13130643 68.82543767 -68 71 C-68.66 71 -69.32 71 -70 71 C-70.03867187 72.13888672 -70.03867187 72.13888672 -70.078125 73.30078125 C-70.16320312 74.79158203 -70.16320312 74.79158203 -70.25 76.3125 C-70.29640625 77.29863281 -70.3428125 78.28476562 -70.390625 79.30078125 C-71 82 -71 82 -72.84375 83.84375 C-75.66621206 85.35724415 -77.84714968 85.21496707 -81 85 C-80.88382356 83.62422639 -80.75654223 82.24938955 -80.625 80.875 C-80.55539062 80.10929687 -80.48578125 79.34359375 -80.4140625 78.5546875 C-79.59401111 73.49512515 -77.54912382 68.73527623 -75.72265625 63.96484375 C-75.29146484 62.82466797 -74.86027344 61.68449219 -74.41601562 60.50976562 C-73.52321949 58.15345374 -72.62489859 55.79922676 -71.72070312 53.44726562 C-65.26028747 37.12280953 -65.26028747 37.12280953 -66 20 C-68.17556089 17.15454499 -68.83141481 17.02366108 -72.5625 16.5 C-80.77349468 16.83206228 -88.54447798 22.11786133 -94 28 C-102.47856364 38.43946493 -109.85057508 51.04152128 -108.8125 64.875 C-108.08570594 69.57183105 -108.08570594 69.57183105 -105 73 C-98.7452574 73.84810069 -94.19302586 72.58100009 -89 69 C-85.36192794 65.08207624 -83.86187314 62.66888027 -83.9375 57.375 C-83.94652344 56.55773437 -83.95554687 55.74046875 -83.96484375 54.8984375 C-83.97644531 54.27195312 -83.98804688 53.64546875 -84 53 C-82.35 53.33 -80.7 53.66 -79 54 C-77.21006131 60.56310855 -77.21006131 60.56310855 -79.31640625 64.39453125 C-83.38946504 69.69918448 -88.67255657 76.09646786 -95.48828125 77.51953125 C-101.23214366 78.1153676 -105.0357366 78.39022866 -110 75 C-110.7425 74.566875 -111.485 74.13375 -112.25 73.6875 C-115.41016799 70.64019516 -115.91788292 66.77017179 -116.37109375 62.51953125 C-116.5286746 53.72281191 -115.47503852 47.57487628 -111 40 C-110.45730469 39.05125 -109.91460937 38.1025 -109.35546875 37.125 C-105.95671621 31.47831407 -102.26743502 26.07218591 -97 22 C-96.34 22 -95.68 22 -95 22 C-94.67 21.01 -94.34 20.02 -94 19 C-93.34 19.33 -92.68 19.66 -92 20 C-92 19.34 -92 18.68 -92 18 C-70.42874055 8.62280302 -70.42874055 8.62280302 -63 11 C-59.09829723 14.79902639 -58.09301543 17.80866583 -57.8671875 23.12890625 C-57.86976563 24.26199219 -57.87234375 25.39507812 -57.875 26.5625 C-57.87113281 28.26599609 -57.87113281 28.26599609 -57.8671875 30.00390625 C-58 33 -58 33 -59 36 C-58.34 36 -57.68 36 -57 36 C-56.690625 35.071875 -56.38125 34.14375 -56.0625 33.1875 C-54.7275897 29.1827691 -53.97195881 26.92254382 -51 24 C-49.87335313 22.39050447 -48.77095531 20.76388182 -47.6875 19.125 C-44.24571885 14.16158929 -41.19669448 10.11512598 -35.3125 8.0625 C-33 8 -33 8 -30 10 C-28.21233525 15.98528261 -29.01003477 21.18471251 -31.23046875 26.8828125 C-32.32870352 29.90435182 -32.66084903 32.81198086 -33 36 C-32.54625 35.175 -32.0925 34.35 -31.625 33.5 C-31.08875 32.675 -30.5525 31.85 -30 31 C-29.34 31 -28.68 31 -28 31 C-27.7328418 30.26048096 -27.46568359 29.52096191 -27.19042969 28.7590332 C-26.02744974 26.06361967 -24.77133934 24.14403303 -22.953125 21.85546875 C-22.355 21.09556641 -21.756875 20.33566406 -21.140625 19.55273438 C-20.51671875 18.77220703 -19.8928125 17.99167969 -19.25 17.1875 C-18.02537305 15.63985175 -16.80140951 14.09167831 -15.578125 12.54296875 C-14.98064453 11.79063965 -14.38316406 11.03831055 -13.76757812 10.26318359 C-11.52979266 7.39795276 -9.38215295 4.47120719 -7.25292969 1.5246582 C-4.87390554 -1.37031564 -3.35137482 -1.00541245 0 0 Z M-36 41 C-35 43 -35 43 -35 43 Z " fill="#F4FDFC" transform="translate(461,238)"/>
<path d="M0 0 C0.763125 0.226875 1.52625 0.45375 2.3125 0.6875 C2.54102153 5.06114823 2.08992757 7.75945286 0.0625 11.625 C-2.05926604 16.02349253 -3.48676295 20.26594656 -4.6875 25 C-10.29960011 47.02188082 -10.29960011 47.02188082 -17.6875 53.6875 C-18.6465625 54.615625 -18.6465625 54.615625 -19.625 55.5625 C-22.76985573 57.27787585 -25.10218136 57.6875 -28.6875 57.6875 C-31.34491843 56.32099381 -32.6102841 54.96737111 -34.6875 52.6875 C-34.6875 51.3675 -34.6875 50.0475 -34.6875 48.6875 C-34.006875 49.0175 -33.32625 49.3475 -32.625 49.6875 C-29.02543677 50.91288323 -26.46620517 51.16842611 -22.6875 50.6875 C-14.64796377 43.56676791 -12.98849903 30.66257557 -10.6875 20.6875 C-11.3475 20.3575 -12.0075 20.0275 -12.6875 19.6875 C-13.04908203 20.52087891 -13.04908203 20.52087891 -13.41796875 21.37109375 C-14.96398854 24.19198525 -16.85199289 26.35650636 -19 28.75 C-19.75925781 29.60722656 -20.51851562 30.46445312 -21.30078125 31.34765625 C-23.65488359 33.65552417 -25.73475521 35.23509469 -28.6875 36.6875 C-31.875 36.5625 -31.875 36.5625 -34.6875 35.6875 C-35.3475 34.6975 -36.0075 33.7075 -36.6875 32.6875 C-37.29078125 33.31398438 -37.8940625 33.94046875 -38.515625 34.5859375 C-39.31484375 35.40320313 -40.1140625 36.22046875 -40.9375 37.0625 C-41.72640625 37.87460937 -42.5153125 38.68671875 -43.328125 39.5234375 C-46.63374909 42.55541721 -48.66725487 43.57620053 -53.125 44.0625 C-57.23324699 43.63005295 -58.76667433 42.5198158 -61.6875 39.6875 C-62.285625 40.47125 -62.88375 41.255 -63.5 42.0625 C-65.6875 44.6875 -65.6875 44.6875 -68.6875 46.6875 C-74.03295455 47.01477273 -74.03295455 47.01477273 -76.6875 45.6875 C-77.70555604 42.63333187 -77.82125515 40.50813039 -77.8125 37.3125 C-77.81636719 35.90871094 -77.81636719 35.90871094 -77.8203125 34.4765625 C-77.69191441 31.78020253 -77.28938709 29.31478491 -76.6875 26.6875 C-77.85942047 28.64269384 -79.0248929 30.6017539 -80.1875 32.5625 C-80.8371875 33.65304687 -81.486875 34.74359375 -82.15625 35.8671875 C-83.84654853 38.44557672 -83.84654853 38.44557672 -83.6875 40.6875 C-84.3475 40.6875 -85.0075 40.6875 -85.6875 40.6875 C-86.120625 42.04875 -86.120625 42.04875 -86.5625 43.4375 C-88.32066583 48.51664573 -88.32066583 48.51664573 -89.6875 50.6875 C-91.1725 51.1825 -91.1725 51.1825 -92.6875 51.6875 C-93.6775 51.0275 -94.6675 50.3675 -95.6875 49.6875 C-96.375 46.0625 -96.375 46.0625 -96.6875 42.6875 C-97.3475 42.6875 -98.0075 42.6875 -98.6875 42.6875 C-99.0175 43.6775 -99.3475 44.6675 -99.6875 45.6875 C-100.3475 45.3575 -101.0075 45.0275 -101.6875 44.6875 C-101.10782767 41.13079341 -100.17928049 38.35166715 -98.47265625 35.18359375 C-98.03373047 34.36052734 -97.59480469 33.53746094 -97.14257812 32.68945312 C-96.68302734 31.84318359 -96.22347656 30.99691406 -95.75 30.125 C-94.84484196 28.43631053 -93.93988675 26.74751232 -93.03515625 25.05859375 C-92.63304932 24.31536865 -92.23094238 23.57214355 -91.81665039 22.80639648 C-90.73834514 20.78291297 -89.70319366 18.74300823 -88.6875 16.6875 C-87.0375 16.6875 -85.3875 16.6875 -83.6875 16.6875 C-82.44536086 20.96077112 -82.99603698 23.40291119 -84.625 27.5 C-85.00527344 28.47582031 -85.38554687 29.45164062 -85.77734375 30.45703125 C-86.07769531 31.19308594 -86.37804687 31.92914063 -86.6875 32.6875 C-86.25179688 31.945 -85.81609375 31.2025 -85.3671875 30.4375 C-81.78837045 24.57822744 -77.67642666 19.41385157 -72.6875 14.6875 C-72.06875 13.90375 -71.45 13.12 -70.8125 12.3125 C-68.6875 10.6875 -68.6875 10.6875 -64.9375 10.9375 C-63.865 11.185 -62.7925 11.4325 -61.6875 11.6875 C-61.1925 13.1725 -61.1925 13.1725 -60.6875 14.6875 C-61.11933594 15.05875 -61.55117188 15.43 -61.99609375 15.8125 C-68.19018514 22.67892926 -70.64586974 32.72588796 -71.6875 41.6875 C-67.62725679 39.64947865 -67.62725679 39.64947865 -65.6875 35.6875 C-65.22730469 35.27886719 -64.76710938 34.87023437 -64.29296875 34.44921875 C-61.93189167 31.85835315 -61.08498217 28.76805808 -60 25.5 C-59.77505859 24.84580078 -59.55011719 24.19160156 -59.31835938 23.51757812 C-58.76692691 21.91021116 -58.22615109 20.29919517 -57.6875 18.6875 C-57.0275 18.6875 -56.3675 18.6875 -55.6875 18.6875 C-55.4090625 17.635625 -55.4090625 17.635625 -55.125 16.5625 C-52.88040122 12.07330243 -49.35484657 8.7782173 -44.671875 6.86328125 C-43.03087496 6.39299465 -41.36008339 6.02884355 -39.6875 5.6875 C-37.2125 8.1625 -37.2125 8.1625 -34.6875 10.6875 C-37.69730273 19.56641805 -41.8385244 24.54292391 -49.6875 29.6875 C-52.6875 31.0625 -52.6875 31.0625 -54.6875 31.6875 C-54.1925 35.1525 -54.1925 35.1525 -53.6875 38.6875 C-50.05427935 38.43401949 -48.09737824 38.02381035 -45.25 35.6875 C-44.404375 34.6975 -43.55875 33.7075 -42.6875 32.6875 C-42.16414062 32.10355469 -41.64078125 31.51960938 -41.1015625 30.91796875 C-36.55310403 25.53596925 -33.51996589 19.73362517 -30.6159668 13.36010742 C-28.53894915 8.92173463 -26.3510459 5.95807039 -22.6875 2.6875 C-21.0375 3.3475 -19.3875 4.0075 -17.6875 4.6875 C-18.29455486 8.81547305 -19.62749331 12.06188822 -21.6875 15.6875 C-22.3475 16.0175 -23.0075 16.3475 -23.6875 16.6875 C-24.41205635 18.32982772 -25.06524395 20.00374835 -25.6875 21.6875 C-26.22375 22.88375 -26.76 24.08 -27.3125 25.3125 C-28.87614844 28.54315536 -28.87614844 28.54315536 -28.6875 31.6875 C-22.90332315 27.46845336 -18.63474295 22.30811414 -14.375 16.625 C-13.6020459 15.59826172 -13.6020459 15.59826172 -12.81347656 14.55078125 C-10.00904496 10.74043221 -7.70331809 6.98791192 -5.6875 2.6875 C-3.75329235 -0.03797442 -3.39075779 -0.39427416 0 0 Z M-44.625 12.41015625 C-48.65720261 16.98456792 -51.71542017 20.89451551 -53.6875 26.6875 C-48.09294837 25.33124506 -44.91797443 21.18352111 -41.6875 16.6875 C-40.22617114 13.40767567 -40.22617114 13.40767567 -39.6875 10.6875 C-42.74593292 10.35527132 -42.74593292 10.35527132 -44.625 12.41015625 Z " fill="#F2FDFB" transform="translate(581.6875,243.3125)"/>
<path d="M0 0 C1.01900391 0.42925781 1.01900391 0.42925781 2.05859375 0.8671875 C6.69036413 3.56983018 9.36511863 9.42791279 11.3125 14.25 C13.40181664 22.60726658 13.13010747 29.94275032 8.625 37.5625 C6.81195132 40.37564973 5.24798527 42.00198271 2 43 C0.3112334 42.39148575 -1.35427436 41.71680495 -3 41 C-10.57605992 40.14607975 -16.97261283 40.7780084 -23.87890625 44.02734375 C-25.96165922 44.98241832 -27.72495074 45.70613947 -30 46 C-32.4375 43.9375 -32.4375 43.9375 -35 41 C-35.886875 40.113125 -36.77375 39.22625 -37.6875 38.3125 C-41.91121664 33.10280534 -42.27337133 26.34853407 -41.875 19.875 C-40.84058158 12.36371173 -37.57649731 6.69160494 -32.0390625 1.54296875 C-22.00792678 -6.04764161 -10.70505268 -5.80828601 0 0 Z M-15 8 C-19.37347408 10.44876058 -19.37347408 10.44876058 -22.1875 14.4375 C-22.22396375 17.21818569 -22.22396375 17.21818569 -19.9375 19.625 C-17.06763105 21.94531957 -14.36612111 23.51264416 -11 25 C-11.33 25.99 -11.66 26.98 -12 28 C-13.98 28 -15.96 28 -18 28 C-18.33 27.34 -18.66 26.68 -19 26 C-19.99 26.33 -20.98 26.66 -22 27 C-21.67 27.99 -21.34 28.98 -21 30 C-17.49705129 31.71567661 -17.49705129 31.71567661 -14 33 C-13.34 32.34 -12.68 31.68 -12 31 C-9.875 30.375 -9.875 30.375 -8 30 C-6.83687676 25.50392039 -6.83687676 25.50392039 -8 21.25 C-10.18574425 19.80043465 -10.18574425 19.80043465 -13.625 18.5625 C-17 17 -17 17 -17.9375 14.8125 C-17.958125 14.214375 -17.97875 13.61625 -18 13 C-14.37471432 12.79859524 -12.13498292 13.14223235 -9 15 C-9 14.01 -9 13.02 -9 12 C-9.804375 11.71125 -10.60875 11.4225 -11.4375 11.125 C-14 10 -14 10 -15 8 Z " fill="#FAFDFD" transform="translate(563,5)"/>
<path d="M0 0 C1.051875 0.515625 2.10375 1.03125 3.1875 1.5625 C9.32091858 6.87812944 13.61517309 13.99094152 14.23828125 22.1015625 C14.45323071 32.30600542 13.36568517 39.75505367 6.25 47.375 C-1.67301028 54.70563568 -9.46168546 56.39030795 -20 56 C-22.00920153 55.72756589 -24.01820725 55.42849573 -26 55 C-26 54.34 -26 53.68 -26 53 C-27.11375 53.1546875 -27.11375 53.1546875 -28.25 53.3125 C-31 53 -31 53 -33 50.8125 C-33.99 49.4203125 -33.99 49.4203125 -35 48 C-35.825 47.2575 -36.65 46.515 -37.5 45.75 C-43.09330842 39.59736074 -45.09091086 32.22093924 -45 24 C-44.31194642 15.31881339 -39.93343493 8.47149004 -33.625 2.625 C-23.66983098 -5.20466452 -11.0210843 -5.81723301 0 0 Z M-31.6484375 9.36328125 C-36.10511704 14.76024289 -38.82321122 20.79384288 -38.3515625 27.84375 C-37.19597938 34.93132648 -34.19194324 40.05716514 -29 45 C-23.40023114 48.9998349 -17.74755102 49.74738865 -11 49 C-4.47741274 47.28352967 1.06917661 44.61731527 5 39 C7.9761985 33.64736924 8.93476779 28.05031018 8 22 C5.84507656 15.22580476 2.7060664 9.32234871 -3.625 5.75 C-13.0628863 1.46005168 -23.80318424 2.06588087 -31.6484375 9.36328125 Z " fill="#F6FDFC" transform="translate(569,51)"/>
<path d="M0 0 C-0.99 1.98 -1.98 3.96 -3 6 C-4.11375 5.938125 -5.2275 5.87625 -6.375 5.8125 C-12.2475925 5.85414959 -18.41839628 6.65743366 -22.8984375 10.72265625 C-24.50213447 12.5812577 -24.50213447 12.5812577 -25.84375 14.4765625 C-27 16 -27 16 -29 17 C-29 18.32 -29 19.64 -29 21 C-29.66 21 -30.32 21 -31 21 C-31.40195387 30.84786988 -29.52801979 38.38397691 -23 46 C-16.54550755 51.85917519 -7.09430464 50.35363467 1 50 C0.34 52.64 -0.32 55.28 -1 58 C-9.55500882 58.43809434 -16.61318645 58.65810257 -24 54 C-24.7940625 53.50242188 -25.588125 53.00484375 -26.40625 52.4921875 C-32.08466261 48.52836052 -34.95091606 44.59853815 -37 38 C-37.19464844 37.41089844 -37.38929688 36.82179687 -37.58984375 36.21484375 C-38.2030506 32.90352674 -38.10370789 29.60368847 -38.0625 26.25 C-38.05798828 25.55261719 -38.05347656 24.85523437 -38.04882812 24.13671875 C-38.0371002 22.42444197 -38.01916653 20.71220967 -38 19 C-37.34 19 -36.68 19 -36 19 C-35.95875 18.34 -35.9175 17.68 -35.875 17 C-33.59809777 9.19347806 -28.12651142 4.99451566 -21.26953125 1.12890625 C-17.72438133 -0.634516 -14.52983402 -1.27562025 -10.625 -1.6875 C-9.68914063 -1.79449219 -8.75328125 -1.90148438 -7.7890625 -2.01171875 C-4.72701819 -1.99885302 -2.74633026 -1.30325854 0 0 Z " fill="#F5FDFC" transform="translate(524,13)"/>
<path d="M0 0 C0.33 1.98 0.66 3.96 1 6 C1.99 5.34 2.98 4.68 4 4 C4.99 4 5.98 4 7 4 C5.63016497 7.16115776 5.0109362 7.9927092 2 10 C1.58661453 11.79133706 1.17656971 13.5834959 0.78125 15.37890625 C-0.24093966 18.80835255 -1.69250251 21.97673656 -3.25 25.1875 C-3.81203125 26.35667969 -4.3740625 27.52585937 -4.953125 28.73046875 C-7.81912668 33.30841418 -10.89574147 36.22700707 -16.0625 38.125 C-19 38 -19 38 -21.8125 36 C-24.54671399 32.25022082 -25.14814198 30.66647248 -25 26 C-23.68998258 21.81871151 -21.9143055 17.93632128 -20 14 C-19.50628906 12.98421875 -19.01257813 11.9684375 -18.50390625 10.921875 C-14.13892847 2.44134674 -10.08846978 -3.81119969 0 0 Z M-9 9 C-13.39549376 14.17909154 -16.74426792 20.29439068 -18 27 C-17.81241372 30.40933648 -17.81241372 30.40933648 -17 33 C-12.87572988 31.69059675 -11.10410284 30.34300587 -8.8125 26.6875 C-8.32394531 25.92824219 -7.83539063 25.16898437 -7.33203125 24.38671875 C-5.09134746 20.37188651 -3.77566739 16.52472642 -3 12 C-5.67247634 9.65712582 -5.67247634 9.65712582 -9 9 Z " fill="#F3FDFB" transform="translate(480,263)"/>
<path d="M0 0 C1.32 0 2.64 0 4 0 C4 0.99 4 1.98 4 3 C4.61875 3.12375 5.2375 3.2475 5.875 3.375 C8 4 8 4 10 6 C10 7.32 10 8.64 10 10 C8.35 10.33 6.7 10.66 5 11 C4.67 10.01 4.34 9.02 4 8 C3.01 8.33 2.02 8.66 1 9 C1 9.66 1 10.32 1 11 C2.093125 11.268125 3.18625 11.53625 4.3125 11.8125 C9.53025937 13.49279539 9.53025937 13.49279539 11 16 C11.5 19.4375 11.5 19.4375 11 23 C8.625 25.4375 8.625 25.4375 6 27 C5.34 27 4.68 27 4 27 C3.67 28.32 3.34 29.64 3 31 C1.68 30.34 0.36 29.68 -1 29 C-1 28.34 -1 27.68 -1 27 C-1.804375 26.79375 -2.60875 26.5875 -3.4375 26.375 C-4.283125 25.92125 -5.12875 25.4675 -6 25 C-6.8125 21.875 -6.8125 21.875 -7 19 C-5.02 18.67 -3.04 18.34 -1 18 C-2.32 17.34 -3.64 16.68 -5 16 C-5 15.34 -5 14.68 -5 14 C-5.66 13.67 -6.32 13.34 -7 13 C-6.74126898 8.60157266 -6.43893111 6.50477078 -3.5 3.125 C-2.2625 2.073125 -2.2625 2.073125 -1 1 C-0.67 0.67 -0.34 0.34 0 0 Z M0 18 C-0.33 18.99 -0.66 19.98 -1 21 C1.475 21.495 1.475 21.495 4 22 C3.67 20.68 3.34 19.36 3 18 C2.01 18 1.02 18 0 18 Z " fill="#F5FDFC" transform="translate(510,26)"/>
<path d="M0 0 C0.33 0.66 0.66 1.32 1 2 C1.99 2 2.98 2 4 2 C4.33 2.66 4.66 3.32 5 4 C5.99 4.33 6.98 4.66 8 5 C10 8 10 8 10 12 C9.01 12.66 8.02 13.32 7 14 C7.66 14.515625 8.32 15.03125 9 15.5625 C11 18 11 18 11.625 21.4375 C10.76260423 26.35315588 8.98382241 27.15441256 5 30 C4.67 30.66 4.34 31.32 4 32 C2.68 32 1.36 32 0 32 C0 31.01 0 30.02 0 29 C-0.598125 28.896875 -1.19625 28.79375 -1.8125 28.6875 C-4.36005783 27.88683897 -5.41524098 27.13942468 -7 25 C-7 23.68 -7 22.36 -7 21 C-5.35 20.67 -3.7 20.34 -2 20 C-1.67 20.99 -1.34 21.98 -1 23 C0.65 23.33 2.3 23.66 4 24 C3.34810552 20.93916147 3.34810552 20.93916147 1.22265625 19.97265625 C-0.21430511 19.3672096 -1.6518039 18.76303684 -3.08984375 18.16015625 C-5.44861451 16.72752861 -6.07397477 15.57337537 -7 13 C-6.9375 9.9375 -6.9375 9.9375 -6 7 C-3.5 5.375 -3.5 5.375 -1 4 C-0.12177688 1.91466367 -0.12177688 1.91466367 0 0 Z M2 10 C1.34 10.66 0.68 11.32 0 12 C2.475 12.99 2.475 12.99 5 14 C5 13.01 5 12.02 5 11 C4.01 10.67 3.02 10.34 2 10 Z " fill="#F5FDFC" transform="translate(552,60)"/>
<path d="M0 0 C1.32 0.33 2.64 0.66 4 1 C3.34 1 2.68 1 2 1 C2.07105453 1.56081268 2.14210907 2.12162537 2.21531677 2.69943237 C3.06347277 10.10654682 3.12868885 17.43359624 3.09765625 24.8828125 C3.0962413 26.17822968 3.09482635 27.47364685 3.09336853 28.80831909 C3.08958811 32.21783451 3.0797972 35.62730592 3.06866455 39.0368042 C3.05835308 42.52973841 3.05385025 46.02267988 3.04882812 49.515625 C3.03816995 56.34376784 3.02114874 63.1718818 3 70 C4.28197266 70.07347656 4.28197266 70.07347656 5.58984375 70.1484375 C6.69457031 70.22320312 7.79929687 70.29796875 8.9375 70.375 C10.03964844 70.44460937 11.14179688 70.51421875 12.27734375 70.5859375 C13.17582031 70.72257812 14.07429688 70.85921875 15 71 C15.33 71.66 15.66 72.32 16 73 C13.52076199 73.02685095 11.0418116 73.04676547 8.5625 73.0625 C7.85544922 73.07087891 7.14839844 73.07925781 6.41992188 73.08789062 C4.61306441 73.09653588 2.80612397 73.05220011 1 73 C0 72 0 72 -0.12025452 69.14634705 C-0.11803391 67.86949539 -0.11581329 66.59264374 -0.11352539 65.27709961 C-0.11367142 64.5746965 -0.11381744 63.8722934 -0.1139679 63.14860535 C-0.11326872 60.81648722 -0.10547617 58.484448 -0.09765625 56.15234375 C-0.09579208 54.53951562 -0.09436818 52.92668693 -0.09336853 51.31385803 C-0.08954323 47.06084643 -0.07971285 42.80786876 -0.06866455 38.55487061 C-0.05845069 34.2182257 -0.05387096 29.88157533 -0.04882812 25.54492188 C-0.03809059 17.02993231 -0.02101403 8.51497037 0 0 Z " fill="#ECFAF6" transform="translate(347,88)"/>
<path d="M0 0 C2.475 0.495 2.475 0.495 5 1 C6.78993869 7.56310855 6.78993869 7.56310855 4.68359375 11.39453125 C0.62354439 16.68224132 -4.69380814 23.17342447 -11.5234375 24.484375 C-12.46445312 24.57203125 -13.40546875 24.6596875 -14.375 24.75 C-15.77878906 24.89695312 -15.77878906 24.89695312 -17.2109375 25.046875 C-20.25549277 24.995706 -22.26583649 24.29251366 -25 23 C-24.01 21.515 -24.01 21.515 -23 20 C-20.8984375 19.84765625 -20.8984375 19.84765625 -18.375 20.0625 C-13.02183316 20.2172158 -9.35310757 19.12659689 -5 16 C-1.36192794 12.08207624 0.13812686 9.66888027 0.0625 4.375 C0.05347656 3.55773437 0.04445313 2.74046875 0.03515625 1.8984375 C0.02355469 1.27195312 0.01195312 0.64546875 0 0 Z " fill="#E4FCF6" transform="translate(377,291)"/>
<path d="M0 0 C1.63001953 0.01353516 1.63001953 0.01353516 3.29296875 0.02734375 C4.12441406 0.03894531 4.95585937 0.05054688 5.8125 0.0625 C6.4725 1.3825 7.1325 2.7025 7.8125 4.0625 C6.8225 3.7325 5.8325 3.4025 4.8125 3.0625 C0.8525 2.7325 -3.1075 2.4025 -7.1875 2.0625 C-7.1875 21.2025 -7.1875 40.3425 -7.1875 60.0625 C-7.8475 60.0625 -8.5075 60.0625 -9.1875 60.0625 C-9.1875 40.5925 -9.1875 21.1225 -9.1875 1.0625 C-5.90230525 -0.03256492 -3.45086585 -0.03710608 0 0 Z " fill="#EDFBF7" transform="translate(356.1875,163.9375)"/>
<path d="M0 0 C16.5 0 33 0 50 0 C49.67 0.66 49.34 1.32 49 2 C38.99511255 4.02051549 28.04556907 3.08271958 17.875 3 C14.53906618 2.97343397 11.20318674 2.95349082 7.8671875 2.9375 C7.10582489 2.92920166 6.34446228 2.92090332 5.56002808 2.91235352 C1.65238054 2.81238456 1.65238054 2.81238456 -2 4 C-1.34 2.68 -0.68 1.36 0 0 Z " fill="#F0FCF8" transform="translate(38,186)"/>
<path d="M0 0 C0.66 0.33 1.32 0.66 2 1 C1.49890292 5.28550189 0.28118172 7.220091 -2.8125 10.1875 C-3.49957031 10.86167969 -4.18664062 11.53585937 -4.89453125 12.23046875 C-8.14674699 14.96377808 -10.24323691 15.93243187 -14.5 16.3125 C-18.12402615 15.98892624 -19.42589181 15.47114386 -22 13 C-21.67 12.34 -21.34 11.68 -21 11 C-19.515 11.99 -19.515 11.99 -18 13 C-17.67 12.01 -17.34 11.02 -17 10 C-16.319375 10.2475 -15.63875 10.495 -14.9375 10.75 C-10.79281826 11.10273887 -8.12891676 9.5373448 -5 7 C-3.08798504 4.75733584 -1.5864977 2.49993577 0 0 Z " fill="#E7FCF6" transform="translate(543,271)"/>
<path d="M0 0 C1.28970703 -0.00128906 2.57941406 -0.00257813 3.90820312 -0.00390625 C4.58230225 -0.00181152 5.25640137 0.0002832 5.95092773 0.00244141 C7.96532625 0.00771157 9.9797439 0.00200975 11.99414062 -0.00390625 C19.90330066 0.00392848 27.69819427 0.32112291 35.56640625 1.1328125 C35.23640625 1.7928125 34.90640625 2.4528125 34.56640625 3.1328125 C19.71640625 3.1328125 4.86640625 3.1328125 -10.43359375 3.1328125 C-8.41907168 -0.89623165 -3.97337397 0.00384777 0 0 Z " fill="#F0FBF9" transform="translate(50.43359375,179.8671875)"/>
<path d="M0 0 C1.42966184 0.05342557 2.85934956 0.10616314 4.2890625 0.15820312 C7.73470826 0.28508035 11.17991516 0.4211188 14.625 0.5625 C14.625 1.2225 14.625 1.8825 14.625 2.5625 C0.105 2.5625 -14.415 2.5625 -29.375 2.5625 C-29.705 1.9025 -30.035 1.2425 -30.375 0.5625 C-20.15925916 -0.39930006 -10.23205899 -0.42272278 0 0 Z " fill="#F0FBF9" transform="translate(501.375,180.4375)"/>
<path d="M0 0 C1.15951172 0.32597168 2.31902344 0.65194336 3.51367188 0.98779297 C7.65551998 2.01961501 11.50072552 2.22983286 15.78125 2.1953125 C16.82968079 2.19106766 16.82968079 2.19106766 17.89929199 2.18673706 C20.09971316 2.1756727 22.29970493 2.15059606 24.5 2.125 C26.00520239 2.11495235 27.51041126 2.10582965 29.015625 2.09765625 C32.67721938 2.07577893 36.33856768 2.04134696 40 2 C40 2.99 40 3.98 40 5 C35.57157983 5.21841824 31.14286808 5.4149857 26.71264648 5.59204102 C25.20815621 5.65516535 23.70389659 5.72408012 22.19995117 5.79907227 C20.02819237 5.9063285 17.85643452 5.99218791 15.68359375 6.07421875 C14.37962646 6.13182373 13.07565918 6.18942871 11.73217773 6.2487793 C7.33260501 5.95551282 4.85167123 5.10293622 1 3 C0.67 2.01 0.34 1.02 0 0 Z " fill="#F0FBF9" transform="translate(544,226)"/>
<path d="M0 0 C1 3 1 3 0.1796875 5.0078125 C-3.37624698 10.77822115 -3.37624698 10.77822115 -6.8125 12 C-7.534375 12 -8.25625 12 -9 12 C-5.65441176 2.99264706 -5.65441176 2.99264706 -1.8125 0.6875 C-0.9153125 0.3471875 -0.9153125 0.3471875 0 0 Z " fill="#E7FCF6" transform="translate(520,277)"/>
<path d="M0 0 C0.33 0.99 0.66 1.98 1 3 C-0.4375 5.6875 -0.4375 5.6875 -2 8 C-2.33 7.34 -2.66 6.68 -3 6 C-3.66 6 -4.32 6 -5 6 C-5.66 7.98 -6.32 9.96 -7 12 C-8.32940404 8.01178789 -7.43803613 5.88269755 -6 2 C-5.01 1.67 -4.02 1.34 -3 1 C-3 1.66 -3 2.32 -3 3 C-2.34 3 -1.68 3 -1 3 C-0.67 2.01 -0.34 1.02 0 0 Z " fill="#EBF5F3" transform="translate(404,279)"/>
<path d="M0 0 C6.51791392 -0.3540919 11.17521449 -0.03901852 17 3 C16.34 3.66 15.68 4.32 15 5 C12.37174888 4.48616214 9.93126859 3.8843344 7.375 3.125 C6.66859375 2.92519531 5.9621875 2.72539063 5.234375 2.51953125 C3.48656637 2.0235315 1.74286351 1.5131058 0 1 C0 0.67 0 0.34 0 0 Z " fill="#F1FBF9" transform="translate(356,88)"/>
<path d="M0 0 C2.31 0 4.62 0 7 0 C6.67 0.99 6.34 1.98 6 3 C4.35 2.67 2.7 2.34 1 2 C0.67 3.32 0.34 4.64 0 6 C-0.66 6 -1.32 6 -2 6 C-1.34 4.02 -0.68 2.04 0 0 Z " fill="#ECFCFA" transform="translate(507,80)"/>
<path d="M0 0 C-1 2 -1 2 -3.8125 3.125 C-7 4 -7 4 -11 4 C-11 3.34 -11 2.68 -11 2 C-7.36576791 -0.32590854 -4.22911669 -0.16265833 0 0 Z " fill="#F1F9F8" transform="translate(385,160)"/>
<path d="M0 0 C0.33 0.66 0.66 1.32 1 2 C0.34 1.67 -0.32 1.34 -1 1 C-0.67 0.67 -0.34 0.34 0 0 Z " fill="#FFFFFF" transform="translate(242,232)"/>
<path d="" fill="#FFFFFF" transform="translate(0,0)"/>
<path d="M0 0 C2 1 2 1 2 1 Z " fill="#FFFFFF" transform="translate(383,296)"/>
<path d="" fill="#FFFFFF" transform="translate(0,0)"/>
<path d="M0 0 C2 1 2 1 2 1 Z " fill="#FFFFFF" transform="translate(558,291)"/>
<path d="" fill="#FFFFFF" transform="translate(0,0)"/>
<path d="" fill="#FFFFFF" transform="translate(0,0)"/>
<path d="M0 0 C2 1 2 1 2 1 Z " fill="#FFFFFF" transform="translate(405,261)"/>
<path d="" fill="#FFFFFF" transform="translate(0,0)"/>
<path d="" fill="#FFFFFF" transform="translate(0,0)"/>
<path d="" fill="#FFFFFF" transform="translate(0,0)"/>
<path d="M0 0 C2 1 2 1 2 1 Z " fill="#FFFFFF" transform="translate(380,246)"/>
<path d="" fill="#FFFFFF" transform="translate(0,0)"/>
<path d="M0 0 C2 1 2 1 2 1 Z " fill="#FFFFFF" transform="translate(367,234)"/>
<path d="" fill="#FFFFFF" transform="translate(0,0)"/>
<path d="" fill="#FFFFFF" transform="translate(0,0)"/>
<path d="M0 0 C2 1 2 1 2 1 Z " fill="#FFFFFF" transform="translate(38,202)"/>
<path d="M0 0 C2 1 2 1 2 1 Z " fill="#FFFFFF" transform="translate(468,195)"/>
<path d="" fill="#FFFFFF" transform="translate(0,0)"/>
<path d="" fill="#FFFFFF" transform="translate(0,0)"/>
<path d="" fill="#FFFFFF" transform="translate(0,0)"/>
<path d="" fill="#FFFFFF" transform="translate(0,0)"/>
<path d="M0 0 C2 1 2 1 2 1 Z " fill="#FFFFFF" transform="translate(494,141)"/>
<path d="M0 0 C2 1 2 1 2 1 Z " fill="#FFFFFF" transform="translate(59,108)"/>
<path d="" fill="#FFFFFF" transform="translate(0,0)"/>
<path d="M0 0 C2 1 2 1 2 1 Z " fill="#FFFFFF" transform="translate(544,94)"/>
<path d="M0 0 C2 1 2 1 2 1 Z " fill="#FFFFFF" transform="translate(208,90)"/>
<path d="M0 0 C2 1 2 1 2 1 Z " fill="#FFFFFF" transform="translate(519,77)"/>
<path d="M0 0 C2 1 2 1 2 1 Z " fill="#FFFFFF" transform="translate(499,70)"/>
<path d="M0 0 C2 1 2 1 2 1 Z " fill="#FFFFFF" transform="translate(510,46)"/>
<path d="M0 0 C2 1 2 1 2 1 Z " fill="#FFFFFF" transform="translate(520,40)"/>
<path d="" fill="#FFFFFF" transform="translate(0,0)"/>
<path d="" fill="#FFFFFF" transform="translate(0,0)"/>
<path d="" fill="#FFFFFF" transform="translate(0,0)"/>
<path d="" fill="#FFFFFF" transform="translate(0,0)"/>
<path d="" fill="#FFFFFF" transform="translate(0,0)"/>
<path d="" fill="#FFFFFF" transform="translate(0,0)"/>
<path d="" fill="#FFFFFF" transform="translate(0,0)"/>
<path d="" fill="#FFFFFF" transform="translate(0,0)"/>
<path d="" fill="#FFFFFF" transform="translate(0,0)"/>
<path d="" fill="#FFFFFF" transform="translate(0,0)"/>
<path d="" fill="#FFFFFF" transform="translate(0,0)"/>
<path d="" fill="#FFFFFF" transform="translate(0,0)"/>
<path d="" fill="#FFFFFF" transform="translate(0,0)"/>
<path d="" fill="#FFFFFF" transform="translate(0,0)"/>
<path d="" fill="#FFFFFF" transform="translate(0,0)"/>
<path d="" fill="#FFFFFF" transform="translate(0,0)"/>
<path d="" fill="#FFFFFF" transform="translate(0,0)"/>
<path d="" fill="#FFFFFF" transform="translate(0,0)"/>
<path d="" fill="#FFFFFF" transform="translate(0,0)"/>
<path d="" fill="#FFFFFF" transform="translate(0,0)"/>
<path d="" fill="#FFFFFF" transform="translate(0,0)"/>
<path d="" fill="#FFFFFF" transform="translate(0,0)"/>
<path d="" fill="#FFFFFF" transform="translate(0,0)"/>
<path d="" fill="#FFFFFF" transform="translate(0,0)"/>
<path d="" fill="#FFFFFF" transform="translate(0,0)"/>
<path d="" fill="#FFFFFF" transform="translate(0,0)"/>
<path d="" fill="#FFFFFF" transform="translate(0,0)"/>
<path d="" fill="#FFFFFF" transform="translate(0,0)"/>
<path d="" fill="#FFFFFF" transform="translate(0,0)"/>
<path d="" fill="#FFFFFF" transform="translate(0,0)"/>
<path d="" fill="#FFFFFF" transform="translate(0,0)"/>
<path d="" fill="#FFFFFF" transform="translate(0,0)"/>
<path d="" fill="#FFFFFF" transform="translate(0,0)"/>
<path d="" fill="#FFFFFF" transform="translate(0,0)"/>
<path d="" fill="#FFFFFF" transform="translate(0,0)"/>
<path d="" fill="#FFFFFF" transform="translate(0,0)"/>
<path d="" fill="#FFFFFF" transform="translate(0,0)"/>
<path d="" fill="#FFFFFF" transform="translate(0,0)"/>
<path d="" fill="#FFFFFF" transform="translate(0,0)"/>
<path d="" fill="#FFFFFF" transform="translate(0,0)"/>
<path d="" fill="#FFFFFF" transform="translate(0,0)"/>
<path d="" fill="#FFFFFF" transform="translate(0,0)"/>
<path d="" fill="#FFFFFF" transform="translate(0,0)"/>
<path d="" fill="#FFFFFF" transform="translate(0,0)"/>
<path d="" fill="#FFFFFF" transform="translate(0,0)"/>
<path d="" fill="#FFFFFF" transform="translate(0,0)"/>
<path d="" fill="#FFFFFF" transform="translate(0,0)"/>
<path d="" fill="#FFFFFF" transform="translate(0,0)"/>
<path d="" fill="#FFFFFF" transform="translate(0,0)"/>
<path d="" fill="#FFFFFF" transform="translate(0,0)"/>
<path d="" fill="#FFFFFF" transform="translate(0,0)"/>
<path d="" fill="#FFFFFF" transform="translate(0,0)"/>
<path d="" fill="#FFFFFF" transform="translate(0,0)"/>
<path d="" fill="#FFFFFF" transform="translate(0,0)"/>
<path d="" fill="#FFFFFF" transform="translate(0,0)"/>
<path d="" fill="#FFFFFF" transform="translate(0,0)"/>
<path d="" fill="#FFFFFF" transform="translate(0,0)"/>
<path d="" fill="#FFFFFF" transform="translate(0,0)"/>
<path d="" fill="#FFFFFF" transform="translate(0,0)"/>
<path d="" fill="#FFFFFF" transform="translate(0,0)"/>
<path d="" fill="#FFFFFF" transform="translate(0,0)"/>
<path d="" fill="#FFFFFF" transform="translate(0,0)"/>
<path d="" fill="#FFFFFF" transform="translate(0,0)"/>
<path d="" fill="#FFFFFF" transform="translate(0,0)"/>
<path d="" fill="#FFFFFF" transform="translate(0,0)"/>
<path d="" fill="#FFFFFF" transform="translate(0,0)"/>
<path d="" fill="#FFFFFF" transform="translate(0,0)"/>
<path d="" fill="#FFFFFF" transform="translate(0,0)"/>
<path d="" fill="#FFFFFF" transform="translate(0,0)"/>
<path d="" fill="#FFFFFF" transform="translate(0,0)"/>
<path d="" fill="#FFFFFF" transform="translate(0,0)"/>
<path d="" fill="#FFFFFF" transform="translate(0,0)"/>
<path d="" fill="#FFFFFF" transform="translate(0,0)"/>
<path d="" fill="#FFFFFF" transform="translate(0,0)"/>
<path d="" fill="#FFFFFF" transform="translate(0,0)"/>
<path d="" fill="#FFFFFF" transform="translate(0,0)"/>
<path d="" fill="#FFFFFF" transform="translate(0,0)"/>
<path d="" fill="#FFFFFF" transform="translate(0,0)"/>
<path d="" fill="#FFFFFF" transform="translate(0,0)"/>
<path d="" fill="#FFFFFF" transform="translate(0,0)"/>
<path d="" fill="#FFFFFF" transform="translate(0,0)"/>
<path d="" fill="#FFFFFF" transform="translate(0,0)"/>
<path d="" fill="#FFFFFF" transform="translate(0,0)"/>
<path d="" fill="#FFFFFF" transform="translate(0,0)"/>
<path d="" fill="#FFFFFF" transform="translate(0,0)"/>
<path d="" fill="#FFFFFF" transform="translate(0,0)"/>
<path d="" fill="#FFFFFF" transform="translate(0,0)"/>
<path d="" fill="#FFFFFF" transform="translate(0,0)"/>
<path d="" fill="#FFFFFF" transform="translate(0,0)"/>
<path d="" fill="#FFFFFF" transform="translate(0,0)"/>
<path d="" fill="#FFFFFF" transform="translate(0,0)"/>
<path d="" fill="#FFFFFF" transform="translate(0,0)"/>
<path d="" fill="#FFFFFF" transform="translate(0,0)"/>
<path d="" fill="#FFFFFF" transform="translate(0,0)"/>
<path d="" fill="#FFFFFF" transform="translate(0,0)"/>
<path d="" fill="#FFFFFF" transform="translate(0,0)"/>
<path d="" fill="#FFFFFF" transform="translate(0,0)"/>
<path d="" fill="#FFFFFF" transform="translate(0,0)"/>
<path d="" fill="#FFFFFF" transform="translate(0,0)"/>
<path d="" fill="#FFFFFF" transform="translate(0,0)"/>
<path d="" fill="#FFFFFF" transform="translate(0,0)"/>
<path d="" fill="#FFFFFF" transform="translate(0,0)"/>
<path d="" fill="#FFFFFF" transform="translate(0,0)"/>
<path d="" fill="#FFFFFF" transform="translate(0,0)"/>
<path d="" fill="#FFFFFF" transform="translate(0,0)"/>
<path d="" fill="#FFFFFF" transform="translate(0,0)"/>
<path d="" fill="#FFFFFF" transform="translate(0,0)"/>
<path d="" fill="#FFFFFF" transform="translate(0,0)"/>
<path d="" fill="#FFFFFF" transform="translate(0,0)"/>
<path d="" fill="#FFFFFF" transform="translate(0,0)"/>
<path d="" fill="#FFFFFF" transform="translate(0,0)"/>
<path d="" fill="#FFFFFF" transform="translate(0,0)"/>
<path d="" fill="#FFFFFF" transform="translate(0,0)"/>
<path d="" fill="#FFFFFF" transform="translate(0,0)"/>
<path d="" fill="#FFFFFF" transform="translate(0,0)"/>
<path d="" fill="#FFFFFF" transform="translate(0,0)"/>
<path d="" fill="#FFFFFF" transform="translate(0,0)"/>
<path d="" fill="#FFFFFF" transform="translate(0,0)"/>
<path d="" fill="#FFFFFF" transform="translate(0,0)"/>
<path d="" fill="#FFFFFF" transform="translate(0,0)"/>
<path d="" fill="#FFFFFF" transform="translate(0,0)"/>
<path d="" fill="#FFFFFF" transform="translate(0,0)"/>
<path d="" fill="#FFFFFF" transform="translate(0,0)"/>
<path d="" fill="#FFFFFF" transform="translate(0,0)"/>
<path d="" fill="#FFFFFF" transform="translate(0,0)"/>
<path d="" fill="#FFFFFF" transform="translate(0,0)"/>
<path d="" fill="#FFFFFF" transform="translate(0,0)"/>
<path d="" fill="#FFFFFF" transform="translate(0,0)"/>
<path d="" fill="#FFFFFF" transform="translate(0,0)"/>
<path d="" fill="#FFFFFF" transform="translate(0,0)"/>
<path d="" fill="#FFFFFF" transform="translate(0,0)"/>
<path d="" fill="#FFFFFF" transform="translate(0,0)"/>
<path d="" fill="#FFFFFF" transform="translate(0,0)"/>
<path d="" fill="#FFFFFF" transform="translate(0,0)"/>
<path d="" fill="#FFFFFF" transform="translate(0,0)"/>
<path d="" fill="#FFFFFF" transform="translate(0,0)"/>
<path d="" fill="#FFFFFF" transform="translate(0,0)"/>
<path d="" fill="#FFFFFF" transform="translate(0,0)"/>
<path d="" fill="#FFFFFF" transform="translate(0,0)"/>
<path d="" fill="#FFFFFF" transform="translate(0,0)"/>
<path d="" fill="#FFFFFF" transform="translate(0,0)"/>
<path d="" fill="#FFFFFF" transform="translate(0,0)"/>
<path d="" fill="#FFFFFF" transform="translate(0,0)"/>
<path d="" fill="#FFFFFF" transform="translate(0,0)"/>
<path d="" fill="#FFFFFF" transform="translate(0,0)"/>
<path d="" fill="#FFFFFF" transform="translate(0,0)"/>
<path d="" fill="#FFFFFF" transform="translate(0,0)"/>
<path d="" fill="#FFFFFF" transform="translate(0,0)"/>
<path d="" fill="#FFFFFF" transform="translate(0,0)"/>
<path d="" fill="#FFFFFF" transform="translate(0,0)"/>
<path d="" fill="#FFFFFF" transform="translate(0,0)"/>
<path d="" fill="#FFFFFF" transform="translate(0,0)"/>
<path d="" fill="#FFFFFF" transform="translate(0,0)"/>
<path d="" fill="#FFFFFF" transform="translate(0,0)"/>
<path d="" fill="#FFFFFF" transform="translate(0,0)"/>
<path d="" fill="#FFFFFF" transform="translate(0,0)"/>
<path d="" fill="#FFFFFF" transform="translate(0,0)"/>
<path d="" fill="#FFFFFF" transform="translate(0,0)"/>
<path d="" fill="#FFFFFF" transform="translate(0,0)"/>
<path d="" fill="#FFFFFF" transform="translate(0,0)"/>
<path d="" fill="#FFFFFF" transform="translate(0,0)"/>
<path d="" fill="#FFFFFF" transform="translate(0,0)"/>
<path d="" fill="#FFFFFF" transform="translate(0,0)"/>
<path d="" fill="#FFFFFF" transform="translate(0,0)"/>
<path d="" fill="#FFFFFF" transform="translate(0,0)"/>
<path d="" fill="#FFFFFF" transform="translate(0,0)"/>
<path d="" fill="#FFFFFF" transform="translate(0,0)"/>
<path d="" fill="#FFFFFF" transform="translate(0,0)"/>
<path d="" fill="#FFFFFF" transform="translate(0,0)"/>
<path d="" fill="#FFFFFF" transform="translate(0,0)"/>
<path d="" fill="#FFFFFF" transform="translate(0,0)"/>
<path d="" fill="#FFFFFF" transform="translate(0,0)"/>
<path d="" fill="#FFFFFF" transform="translate(0,0)"/>
<path d="" fill="#FFFFFF" transform="translate(0,0)"/>
<path d="" fill="#FFFFFF" transform="translate(0,0)"/>
<path d="" fill="#FFFFFF" transform="translate(0,0)"/>
<path d="" fill="#FFFFFF" transform="translate(0,0)"/>
<path d="" fill="#FFFFFF" transform="translate(0,0)"/>
<path d="" fill="#FFFFFF" transform="translate(0,0)"/>
<path d="" fill="#FFFFFF" transform="translate(0,0)"/>
<path d="" fill="#FFFFFF" transform="translate(0,0)"/>
<path d="" fill="#FFFFFF" transform="translate(0,0)"/>
<path d="" fill="#FFFFFF" transform="translate(0,0)"/>
<path d="" fill="#FFFFFF" transform="translate(0,0)"/>
<path d="" fill="#FFFFFF" transform="translate(0,0)"/>
<path d="" fill="#FFFFFF" transform="translate(0,0)"/>
<path d="" fill="#FFFFFF" transform="translate(0,0)"/>
<path d="" fill="#FFFFFF" transform="translate(0,0)"/>
<path d="" fill="#FFFFFF" transform="translate(0,0)"/>
<path d="" fill="#FFFFFF" transform="translate(0,0)"/>
<path d="" fill="#FFFFFF" transform="translate(0,0)"/>
<path d="" fill="#FFFFFF" transform="translate(0,0)"/>
<path d="" fill="#FFFFFF" transform="translate(0,0)"/>
<path d="" fill="#FFFFFF" transform="translate(0,0)"/>
<path d="" fill="#FFFFFF" transform="translate(0,0)"/>
<path d="" fill="#FFFFFF" transform="translate(0,0)"/>
<path d="" fill="#FFFFFF" transform="translate(0,0)"/>
<path d="" fill="#FFFFFF" transform="translate(0,0)"/>
<path d="" fill="#FFFFFF" transform="translate(0,0)"/>
<path d="" fill="#FFFFFF" transform="translate(0,0)"/>
<path d="" fill="#FFFFFF" transform="translate(0,0)"/>
<path d="" fill="#FFFFFF" transform="translate(0,0)"/>
<path d="" fill="#FFFFFF" transform="translate(0,0)"/>
<path d="" fill="#FFFFFF" transform="translate(0,0)"/>
<path d="" fill="#FFFFFF" transform="translate(0,0)"/>
<path d="" fill="#FFFFFF" transform="translate(0,0)"/>
<path d="" fill="#FFFFFF" transform="translate(0,0)"/>
<path d="" fill="#FFFFFF" transform="translate(0,0)"/>
<path d="" fill="#FFFFFF" transform="translate(0,0)"/>
<path d="" fill="#FFFFFF" transform="translate(0,0)"/>
<path d="" fill="#FFFFFF" transform="translate(0,0)"/>
<path d="" fill="#FFFFFF" transform="translate(0,0)"/>
<path d="" fill="#FFFFFF" transform="translate(0,0)"/>
<path d="" fill="#FFFFFF" transform="translate(0,0)"/>
<path d="" fill="#FFFFFF" transform="translate(0,0)"/>
<path d="" fill="#FFFFFF" transform="translate(0,0)"/>
<path d="" fill="#FFFFFF" transform="translate(0,0)"/>
<path d="" fill="#FFFFFF" transform="translate(0,0)"/>
<path d="" fill="#FFFFFF" transform="translate(0,0)"/>
<path d="" fill="#FFFFFF" transform="translate(0,0)"/>
<path d="" fill="#FFFFFF" transform="translate(0,0)"/>
<path d="" fill="#FFFFFF" transform="translate(0,0)"/>
<path d="" fill="#FFFFFF" transform="translate(0,0)"/>
<path d="" fill="#FFFFFF" transform="translate(0,0)"/>
<path d="" fill="#FFFFFF" transform="translate(0,0)"/>
<path d="" fill="#FFFFFF" transform="translate(0,0)"/>
<path d="" fill="#FFFFFF" transform="translate(0,0)"/>
<path d="" fill="#FFFFFF" transform="translate(0,0)"/>
<path d="" fill="#FFFFFF" transform="translate(0,0)"/>
<path d="" fill="#FFFFFF" transform="translate(0,0)"/>
<path d="" fill="#FFFFFF" transform="translate(0,0)"/>
<path d="" fill="#FFFFFF" transform="translate(0,0)"/>
<path d="" fill="#FFFFFF" transform="translate(0,0)"/>
<path d="" fill="#FFFFFF" transform="translate(0,0)"/>
<path d="" fill="#FFFFFF" transform="translate(0,0)"/>
<path d="" fill="#FFFFFF" transform="translate(0,0)"/>
<path d="" fill="#FFFFFF" transform="translate(0,0)"/>
<path d="" fill="#FFFFFF" transform="translate(0,0)"/>
<path d="" fill="#FFFFFF" transform="translate(0,0)"/>
<path d="" fill="#FFFFFF" transform="translate(0,0)"/>
<path d="" fill="#FFFFFF" transform="translate(0,0)"/>
<path d="" fill="#FFFFFF" transform="translate(0,0)"/>
<path d="" fill="#FFFFFF" transform="translate(0,0)"/>
<path d="" fill="#FFFFFF" transform="translate(0,0)"/>
<path d="" fill="#FFFFFF" transform="translate(0,0)"/>
<path d="" fill="#FFFFFF" transform="translate(0,0)"/>
<path d="" fill="#FFFFFF" transform="translate(0,0)"/>
<path d="" fill="#FFFFFF" transform="translate(0,0)"/>
<path d="" fill="#FFFFFF" transform="translate(0,0)"/>
<path d="" fill="#FFFFFF" transform="translate(0,0)"/>
<path d="" fill="#FFFFFF" transform="translate(0,0)"/>
<path d="" fill="#FFFFFF" transform="translate(0,0)"/>
<path d="" fill="#FFFFFF" transform="translate(0,0)"/>
<path d="" fill="#FFFFFF" transform="translate(0,0)"/>
<path d="" fill="#FFFFFF" transform="translate(0,0)"/>
<path d="" fill="#FFFFFF" transform="translate(0,0)"/>
<path d="" fill="#FFFFFF" transform="translate(0,0)"/>
<path d="" fill="#FFFFFF" transform="translate(0,0)"/>
<path d="" fill="#FFFFFF" transform="translate(0,0)"/>
<path d="" fill="#FFFFFF" transform="translate(0,0)"/>
<path d="" fill="#FFFFFF" transform="translate(0,0)"/>
<path d="" fill="#FFFFFF" transform="translate(0,0)"/>
<path d="" fill="#FFFFFF" transform="translate(0,0)"/>
<path d="" fill="#FFFFFF" transform="translate(0,0)"/>
<path d="" fill="#FFFFFF" transform="translate(0,0)"/>
<path d="" fill="#FFFFFF" transform="translate(0,0)"/>
<path d="" fill="#FFFFFF" transform="translate(0,0)"/>
<path d="" fill="#FFFFFF" transform="translate(0,0)"/>
<path d="" fill="#FFFFFF" transform="translate(0,0)"/>
<path d="" fill="#FFFFFF" transform="translate(0,0)"/>
<path d="" fill="#FFFFFF" transform="translate(0,0)"/>
<path d="" fill="#FFFFFF" transform="translate(0,0)"/>
<path d="" fill="#FFFFFF" transform="translate(0,0)"/>
<path d="" fill="#FFFFFF" transform="translate(0,0)"/>
<path d="" fill="#FFFFFF" transform="translate(0,0)"/>
<path d="" fill="#FFFFFF" transform="translate(0,0)"/>
<path d="" fill="#FFFFFF" transform="translate(0,0)"/>
<path d="" fill="#FFFFFF" transform="translate(0,0)"/>
<path d="" fill="#FFFFFF" transform="translate(0,0)"/>
<path d="" fill="#FFFFFF" transform="translate(0,0)"/>
<path d="" fill="#FFFFFF" transform="translate(0,0)"/>
<path d="" fill="#FFFFFF" transform="translate(0,0)"/>
<path d="" fill="#FFFFFF" transform="translate(0,0)"/>
<path d="" fill="#FFFFFF" transform="translate(0,0)"/>
<path d="" fill="#FFFFFF" transform="translate(0,0)"/>
<path d="" fill="#FFFFFF" transform="translate(0,0)"/>
<path d="" fill="#FFFFFF" transform="translate(0,0)"/>
<path d="" fill="#FFFFFF" transform="translate(0,0)"/>
<path d="" fill="#FFFFFF" transform="translate(0,0)"/>
<path d="" fill="#FFFFFF" transform="translate(0,0)"/>
<path d="" fill="#FFFFFF" transform="translate(0,0)"/>
<path d="" fill="#FFFFFF" transform="translate(0,0)"/>
<path d="" fill="#FFFFFF" transform="translate(0,0)"/>
<path d="" fill="#FFFFFF" transform="translate(0,0)"/>
<path d="" fill="#FFFFFF" transform="translate(0,0)"/>
<path d="" fill="#FFFFFF" transform="translate(0,0)"/>
<path d="" fill="#FFFFFF" transform="translate(0,0)"/>
<path d="" fill="#FFFFFF" transform="translate(0,0)"/>
<path d="" fill="#FFFFFF" transform="translate(0,0)"/>
<path d="" fill="#FFFFFF" transform="translate(0,0)"/>
<path d="" fill="#FFFFFF" transform="translate(0,0)"/>
<path d="" fill="#FFFFFF" transform="translate(0,0)"/>
<path d="" fill="#FFFFFF" transform="translate(0,0)"/>
<path d="" fill="#FFFFFF" transform="translate(0,0)"/>
<path d="" fill="#FFFFFF" transform="translate(0,0)"/>
<path d="" fill="#FFFFFF" transform="translate(0,0)"/>
<path d="" fill="#FFFFFF" transform="translate(0,0)"/>
<path d="" fill="#FFFFFF" transform="translate(0,0)"/>
<path d="" fill="#FFFFFF" transform="translate(0,0)"/>
<path d="" fill="#FFFFFF" transform="translate(0,0)"/>
<path d="" fill="#FFFFFF" transform="translate(0,0)"/>
<path d="" fill="#FFFFFF" transform="translate(0,0)"/>
<path d="" fill="#FFFFFF" transform="translate(0,0)"/>
<path d="" fill="#FFFFFF" transform="translate(0,0)"/>
<path d="" fill="#FFFFFF" transform="translate(0,0)"/>
<path d="" fill="#FFFFFF" transform="translate(0,0)"/>
<path d="" fill="#FFFFFF" transform="translate(0,0)"/>
<path d="" fill="#FFFFFF" transform="translate(0,0)"/>
<path d="" fill="#FFFFFF" transform="translate(0,0)"/>
<path d="" fill="#FFFFFF" transform="translate(0,0)"/>
<path d="" fill="#FFFFFF" transform="translate(0,0)"/>
<path d="" fill="#FFFFFF" transform="translate(0,0)"/>
<path d="" fill="#FFFFFF" transform="translate(0,0)"/>
<path d="" fill="#FFFFFF" transform="translate(0,0)"/>
<path d="" fill="#FFFFFF" transform="translate(0,0)"/>
<path d="" fill="#FFFFFF" transform="translate(0,0)"/>
<path d="" fill="#FFFFFF" transform="translate(0,0)"/>
<path d="" fill="#FFFFFF" transform="translate(0,0)"/>
<path d="" fill="#FFFFFF" transform="translate(0,0)"/>
<path d="" fill="#FFFFFF" transform="translate(0,0)"/>
<path d="" fill="#FFFFFF" transform="translate(0,0)"/>
<path d="" fill="#FFFFFF" transform="translate(0,0)"/>
<path d="" fill="#FFFFFF" transform="translate(0,0)"/>
<path d="" fill="#FFFFFF" transform="translate(0,0)"/>
<path d="" fill="#FFFFFF" transform="translate(0,0)"/>
<path d="" fill="#FFFFFF" transform="translate(0,0)"/>
<path d="" fill="#FFFFFF" transform="translate(0,0)"/>
<path d="" fill="#FFFFFF" transform="translate(0,0)"/>
<path d="" fill="#FFFFFF" transform="translate(0,0)"/>
<path d="" fill="#FFFFFF" transform="translate(0,0)"/>
<path d="" fill="#FFFFFF" transform="translate(0,0)"/>
<path d="" fill="#FFFFFF" transform="translate(0,0)"/>
<path d="" fill="#FFFFFF" transform="translate(0,0)"/>
<path d="" fill="#FFFFFF" transform="translate(0,0)"/>
<path d="" fill="#FFFFFF" transform="translate(0,0)"/>
<path d="" fill="#FFFFFF" transform="translate(0,0)"/>
<path d="" fill="#FFFFFF" transform="translate(0,0)"/>
<path d="" fill="#FFFFFF" transform="translate(0,0)"/>
<path d="" fill="#FFFFFF" transform="translate(0,0)"/>
<path d="" fill="#FFFFFF" transform="translate(0,0)"/>
<path d="" fill="#FFFFFF" transform="translate(0,0)"/>
<path d="" fill="#FFFFFF" transform="translate(0,0)"/>
<path d="" fill="#FFFFFF" transform="translate(0,0)"/>
<path d="" fill="#FFFFFF" transform="translate(0,0)"/>
<path d="" fill="#FFFFFF" transform="translate(0,0)"/>
<path d="" fill="#FFFFFF" transform="translate(0,0)"/>
<path d="" fill="#FFFFFF" transform="translate(0,0)"/>
<path d="" fill="#FFFFFF" transform="translate(0,0)"/>
<path d="" fill="#FFFFFF" transform="translate(0,0)"/>
<path d="" fill="#FFFFFF" transform="translate(0,0)"/>
<path d="" fill="#FFFFFF" transform="translate(0,0)"/>
<path d="" fill="#FFFFFF" transform="translate(0,0)"/>
<path d="" fill="#FFFFFF" transform="translate(0,0)"/>
<path d="" fill="#FFFFFF" transform="translate(0,0)"/>
<path d="" fill="#FFFFFF" transform="translate(0,0)"/>
<path d="" fill="#FFFFFF" transform="translate(0,0)"/>
<path d="" fill="#FFFFFF" transform="translate(0,0)"/>
<path d="" fill="#FFFFFF" transform="translate(0,0)"/>
<path d="" fill="#FFFFFF" transform="translate(0,0)"/>
<path d="" fill="#FFFFFF" transform="translate(0,0)"/>
<path d="" fill="#FFFFFF" transform="translate(0,0)"/>
<path d="" fill="#FFFFFF" transform="translate(0,0)"/>
<path d="" fill="#FFFFFF" transform="translate(0,0)"/>
<path d="" fill="#FFFFFF" transform="translate(0,0)"/>
<path d="" fill="#FFFFFF" transform="translate(0,0)"/>
<path d="" fill="#FFFFFF" transform="translate(0,0)"/>
<path d="" fill="#FFFFFF" transform="translate(0,0)"/>
<path d="" fill="#FFFFFF" transform="translate(0,0)"/>
<path d="" fill="#FFFFFF" transform="translate(0,0)"/>
<path d="" fill="#FFFFFF" transform="translate(0,0)"/>
<path d="" fill="#FFFFFF" transform="translate(0,0)"/>
<path d="" fill="#FFFFFF" transform="translate(0,0)"/>
<path d="" fill="#FFFFFF" transform="translate(0,0)"/>
<path d="" fill="#FFFFFF" transform="translate(0,0)"/>
<path d="" fill="#FFFFFF" transform="translate(0,0)"/>
<path d="" fill="#FFFFFF" transform="translate(0,0)"/>
<path d="" fill="#FFFFFF" transform="translate(0,0)"/>
<path d="" fill="#FFFFFF" transform="translate(0,0)"/>
<path d="" fill="#FFFFFF" transform="translate(0,0)"/>
<path d="" fill="#FFFFFF" transform="translate(0,0)"/>
<path d="" fill="#FFFFFF" transform="translate(0,0)"/>
<path d="" fill="#FFFFFF" transform="translate(0,0)"/>
<path d="" fill="#FFFFFF" transform="translate(0,0)"/>
<path d="" fill="#FFFFFF" transform="translate(0,0)"/>
<path d="" fill="#FFFFFF" transform="translate(0,0)"/>
<path d="" fill="#FFFFFF" transform="translate(0,0)"/>
<path d="" fill="#FFFFFF" transform="translate(0,0)"/>
<path d="" fill="#FFFFFF" transform="translate(0,0)"/>
<path d="" fill="#FFFFFF" transform="translate(0,0)"/>
<path d="" fill="#FFFFFF" transform="translate(0,0)"/>
<path d="" fill="#FFFFFF" transform="translate(0,0)"/>
<path d="" fill="#FFFFFF" transform="translate(0,0)"/>
<path d="" fill="#FFFFFF" transform="translate(0,0)"/>
<path d="" fill="#FFFFFF" transform="translate(0,0)"/>
<path d="" fill="#FFFFFF" transform="translate(0,0)"/>
<path d="" fill="#FFFFFF" transform="translate(0,0)"/>
<path d="" fill="#FFFFFF" transform="translate(0,0)"/>
<path d="" fill="#FFFFFF" transform="translate(0,0)"/>
<path d="" fill="#FFFFFF" transform="translate(0,0)"/>
<path d="" fill="#FFFFFF" transform="translate(0,0)"/>
<path d="" fill="#FFFFFF" transform="translate(0,0)"/>
<path d="" fill="#FFFFFF" transform="translate(0,0)"/>
<path d="" fill="#FFFFFF" transform="translate(0,0)"/>
<path d="" fill="#FFFFFF" transform="translate(0,0)"/>
<path d="" fill="#FFFFFF" transform="translate(0,0)"/>
<path d="" fill="#FFFFFF" transform="translate(0,0)"/>
<path d="" fill="#FFFFFF" transform="translate(0,0)"/>
<path d="" fill="#FFFFFF" transform="translate(0,0)"/>
<path d="" fill="#FFFFFF" transform="translate(0,0)"/>
<path d="" fill="#FFFFFF" transform="translate(0,0)"/>
<path d="" fill="#FFFFFF" transform="translate(0,0)"/>
<path d="" fill="#FFFFFF" transform="translate(0,0)"/>
<path d="" fill="#FFFFFF" transform="translate(0,0)"/>
<path d="" fill="#FFFFFF" transform="translate(0,0)"/>
<path d="" fill="#FFFFFF" transform="translate(0,0)"/>
<path d="" fill="#FFFFFF" transform="translate(0,0)"/>
<path d="" fill="#FFFFFF" transform="translate(0,0)"/>
<path d="" fill="#FFFFFF" transform="translate(0,0)"/>
<path d="" fill="#FFFFFF" transform="translate(0,0)"/>
<path d="" fill="#FFFFFF" transform="translate(0,0)"/>
<path d="" fill="#FFFFFF" transform="translate(0,0)"/>
<path d="" fill="#FFFFFF" transform="translate(0,0)"/>
<path d="" fill="#FFFFFF" transform="translate(0,0)"/>
<path d="" fill="#FFFFFF" transform="translate(0,0)"/>
<path d="" fill="#FFFFFF" transform="translate(0,0)"/>
<path d="" fill="#FFFFFF" transform="translate(0,0)"/>
<path d="" fill="#FFFFFF" transform="translate(0,0)"/>
<path d="" fill="#FFFFFF" transform="translate(0,0)"/>
<path d="" fill="#FFFFFF" transform="translate(0,0)"/>
<path d="" fill="#FFFFFF" transform="translate(0,0)"/>
<path d="" fill="#FFFFFF" transform="translate(0,0)"/>
<path d="" fill="#FFFFFF" transform="translate(0,0)"/>
<path d="" fill="#FFFFFF" transform="translate(0,0)"/>
<path d="" fill="#FFFFFF" transform="translate(0,0)"/>
<path d="" fill="#FFFFFF" transform="translate(0,0)"/>
<path d="" fill="#FFFFFF" transform="translate(0,0)"/>
<path d="" fill="#FFFFFF" transform="translate(0,0)"/>
<path d="" fill="#FFFFFF" transform="translate(0,0)"/>
<path d="" fill="#FFFFFF" transform="translate(0,0)"/>
<path d="" fill="#FFFFFF" transform="translate(0,0)"/>
<path d="" fill="#FFFFFF" transform="translate(0,0)"/>
<path d="" fill="#FFFFFF" transform="translate(0,0)"/>
<path d="" fill="#FFFFFF" transform="translate(0,0)"/>
<path d="" fill="#FFFFFF" transform="translate(0,0)"/>
<path d="" fill="#FFFFFF" transform="translate(0,0)"/>
<path d="" fill="#FFFFFF" transform="translate(0,0)"/>
<path d="" fill="#FFFFFF" transform="translate(0,0)"/>
<path d="" fill="#FFFFFF" transform="translate(0,0)"/>
<path d="" fill="#FFFFFF" transform="translate(0,0)"/>
<path d="" fill="#FFFFFF" transform="translate(0,0)"/>
<path d="" fill="#FFFFFF" transform="translate(0,0)"/>
<path d="" fill="#FFFFFF" transform="translate(0,0)"/>
<path d="" fill="#FFFFFF" transform="translate(0,0)"/>
<path d="" fill="#FFFFFF" transform="translate(0,0)"/>
<path d="" fill="#FFFFFF" transform="translate(0,0)"/>
<path d="" fill="#FFFFFF" transform="translate(0,0)"/>
<path d="" fill="#FFFFFF" transform="translate(0,0)"/>
<path d="" fill="#FFFFFF" transform="translate(0,0)"/>
<path d="" fill="#FFFFFF" transform="translate(0,0)"/>
<path d="" fill="#FFFFFF" transform="translate(0,0)"/>
<path d="" fill="#FFFFFF" transform="translate(0,0)"/>
<path d="" fill="#FFFFFF" transform="translate(0,0)"/>
<path d="" fill="#FFFFFF" transform="translate(0,0)"/>
<path d="" fill="#FFFFFF" transform="translate(0,0)"/>
<path d="" fill="#FFFFFF" transform="translate(0,0)"/>
<path d="" fill="#FFFFFF" transform="translate(0,0)"/>
<path d="" fill="#FFFFFF" transform="translate(0,0)"/>
<path d="" fill="#FFFFFF" transform="translate(0,0)"/>
<path d="" fill="#FFFFFF" transform="translate(0,0)"/>
<path d="" fill="#FFFFFF" transform="translate(0,0)"/>
<path d="" fill="#FFFFFF" transform="translate(0,0)"/>
<path d="" fill="#FFFFFF" transform="translate(0,0)"/>
<path d="" fill="#FFFFFF" transform="translate(0,0)"/>
<path d="" fill="#FFFFFF" transform="translate(0,0)"/>
<path d="" fill="#FFFFFF" transform="translate(0,0)"/>
<path d="" fill="#FFFFFF" transform="translate(0,0)"/>
<path d="" fill="#FFFFFF" transform="translate(0,0)"/>
<path d="" fill="#FFFFFF" transform="translate(0,0)"/>
<path d="" fill="#FFFFFF" transform="translate(0,0)"/>
<path d="" fill="#FFFFFF" transform="translate(0,0)"/>
<path d="" fill="#FFFFFF" transform="translate(0,0)"/>
<path d="" fill="#FFFFFF" transform="translate(0,0)"/>
<path d="" fill="#FFFFFF" transform="translate(0,0)"/>
</svg>
